<?xml version="1.0" encoding="UTF-8"?>
<svg width="140px" height="28px" viewBox="0 0 140 28" version="1.1" xmlns="http://www.w3.org/2000/svg" xmlns:xlink="http://www.w3.org/1999/xlink">
    <!-- Generator: Sketch 62 (91390) - https://sketch.com -->
    <title>Group 17</title>
    <desc>Created with Sketch.</desc>
    <defs>
        <polygon id="path-1" points="0 27.5089884 139.713526 27.5089884 139.713526 0.000202312139 0 0.000202312139"></polygon>
    </defs>
    <g id="Page-1" stroke="none" stroke-width="1" fill="none" fill-rule="evenodd">
        <g id="te-Website_Home" transform="translate(-146.000000, -55.000000)">
            <g id="Group-17" transform="translate(146.000000, 55.000000)">
                <path d="M50.7761792,22.8502659 C49.5525954,23.2298035 49.0039249,23.3139653 48.0542717,23.3139653 C45.607104,23.3139653 44.003578,21.5841965 44.003578,18.967896 L44.003578,15.3598613 L41.8728266,15.3598613 L41.8728266,12.8916532 L44.003578,12.8916532 L44.003578,9.2836185 L46.9152543,9.2836185 L46.9152543,12.8916532 L50.5653699,12.8916532 L50.5653699,15.3598613 L46.9152543,15.3598613 L46.9152543,18.9472601 C46.9152543,20.0862775 47.6112081,20.6139075 48.6875087,20.6139075 C49.2357746,20.6139075 49.8269306,20.4868555 50.3966416,20.3395723 L50.7761792,22.8502659 Z" id="Fill-1" fill="#666666"></path>
                <mask id="mask-2" fill="white">
                    <use xlink:href="#path-1"></use>
                </mask>
                <g id="Clip-4"></g>
                <polygon id="Fill-3" fill="#666666" mask="url(#mask-2)" points="52.7812139 22.9978324 55.7139306 22.9978324 55.7139306 12.8915318 52.7812139 12.8915318"></polygon>
                <polygon id="Fill-5" fill="#666666" mask="url(#mask-2)" points="61.2841908 20.9089595 61.2841908 22.9976301 58.351474 22.9976301 58.351474 8.01803468 61.2841908 8.01803468 61.2841908 17.0901156 65.1871965 12.8917341 68.8373121 12.8917341 64.9132659 17.0690751 69.2803757 22.9976301 65.5881792 22.9976301 62.9087572 19.1998266"></polygon>
                <polygon id="Fill-6" fill="#666666" mask="url(#mask-2)" points="70.6745087 22.9978324 73.6072254 22.9978324 73.6072254 8.01823699 70.6745087 8.01823699"></polygon>
                <path d="M83.5025549,19.5587688 L83.5025549,16.3306763 C82.8486821,15.4445491 81.9835954,15.149578 81.1185087,15.149578 C79.578104,15.149578 78.5026127,16.4573237 78.5026127,17.9552428 C78.5026127,19.432526 79.578104,20.7192312 81.1185087,20.7192312 C81.9835954,20.7192312 82.8486821,20.4238555 83.5025549,19.5587688 L83.5025549,19.5587688 Z M86.4352717,22.9976705 L83.5025549,22.9976705 L83.5025549,22.4069191 C82.7216301,22.9135087 81.7727861,23.2088844 80.6329595,23.2088844 C77.8479306,23.2088844 75.5905318,20.8879595 75.5905318,17.9552428 C75.5905318,14.9804451 77.8479306,12.6805607 80.6329595,12.6805607 C81.7727861,12.6805607 82.7216301,12.9759364 83.5025549,13.4821214 L83.5025549,12.8913699 L86.4352717,12.8913699 L86.4352717,22.9976705 Z" id="Fill-7" fill="#666666" mask="url(#mask-2)"></path>
                <path d="M91.2678613,16.9634682 L95.8255491,16.9634682 C95.6353757,15.7819653 94.875896,15.0856069 93.6308671,15.0856069 C92.3020809,15.0856069 91.5421965,15.8875723 91.2678613,16.9634682 M98.652659,19.0310983 L91.2889017,19.0310983 C91.5842775,20.0438728 92.3862428,20.8033526 93.8210405,20.8033526 C94.6440462,20.8033526 95.2133526,20.5504624 95.5297688,20.0438728 L98.5895376,20.0438728 C98.0404624,21.9848555 96.1415607,23.2298844 93.7575145,23.2298844 C90.5083815,23.2298844 88.3351445,20.9720809 88.3351445,17.9552023 C88.3351445,14.9168786 90.487341,12.6805202 93.7154335,12.6805202 C96.5639884,12.6805202 98.7157803,14.7271098 98.7157803,17.7443931 C98.7157803,18.1664162 98.7157803,18.6090751 98.652659,19.0310983" id="Fill-8" fill="#666666" mask="url(#mask-2)"></path>
                <polygon id="Fill-9" fill="#666666" mask="url(#mask-2)" points="106.143347 22.9976705 103.527046 22.9976705 98.969763 12.8913699 102.071613 12.8913699 104.835601 19.2844335 107.599185 12.8913699 110.70063 12.8913699"></polygon>
                <polygon id="Fill-10" fill="#666666" mask="url(#mask-2)" points="112.263006 22.9978324 115.195723 22.9978324 115.195723 8.01823699 112.263006 8.01823699"></polygon>
                <path d="M120.111948,16.9634682 L124.669231,16.9634682 C124.479462,15.7819653 123.719578,15.0856069 122.474954,15.0856069 C121.145763,15.0856069 120.386283,15.8875723 120.111948,16.9634682 M127.496341,19.0310983 L120.132988,19.0310983 C120.428364,20.0438728 121.230329,20.8033526 122.665127,20.8033526 C123.487728,20.8033526 124.057439,20.5504624 124.373855,20.0438728 L127.43322,20.0438728 C126.884145,21.9848555 124.985647,23.2298844 122.601197,23.2298844 C119.352064,23.2298844 117.179231,20.9720809 117.179231,17.9552023 C117.179231,14.9168786 119.331023,12.6805202 122.559116,12.6805202 C125.407671,12.6805202 127.559462,14.7271098 127.559462,17.7443931 C127.559462,18.1664162 127.559462,18.6090751 127.496341,19.0310983" id="Fill-11" fill="#666666" mask="url(#mask-2)"></path>
                <path d="M139.713324,17.4490983 L139.713324,22.997711 L136.781012,22.997711 L136.781012,17.7019884 C136.781012,16.0984624 135.979046,15.2333757 134.607775,15.2333757 C133.869335,15.2333757 133.06737,15.6764393 132.392457,16.4994451 L132.392457,22.997711 L129.45974,22.997711 L129.45974,12.8914104 L132.392457,12.8914104 L132.392457,13.6088092 C133.215058,12.9549364 134.143671,12.5749942 135.283092,12.5749942 C137.941069,12.5749942 139.713324,14.4949364 139.713324,17.4490983" id="Fill-12" fill="#666666" mask="url(#mask-2)"></path>
                <path d="M26.8929075,5.7552948 C24.1111156,5.7552948 21.4729653,6.79841618 19.4636012,8.69327168 L19.1937168,8.94778035 L19.4486301,9.27188439 C19.4660289,9.29575723 19.4834277,9.31963006 19.5133699,9.35523699 C19.5837746,9.43413873 19.6477052,9.51587283 19.7124451,9.59841618 L19.8002486,9.70887861 C19.8807688,9.81286705 19.9608844,9.91604624 20.037763,10.0228671 C20.1081676,10.1179538 20.1725029,10.2162775 20.2372428,10.3154104 L20.7798439,11.1242543 L21.1286301,10.777896 C22.6662023,9.25286705 24.7131965,8.41246243 26.8929075,8.41246243 C31.425104,8.41246243 35.1124451,12.1002081 35.1124451,16.6324046 C35.1124451,21.1646012 31.425104,24.8515376 26.8929075,24.8515376 C24.4857977,24.8515376 22.220711,23.8080116 20.654815,21.9827514 L20.6507688,21.7221734 L20.4399595,21.7221734 C19.2993237,20.2732139 18.6737746,18.4734451 18.6737746,16.6324046 C18.6737746,16.3981272 18.6648728,16.1921734 18.6438324,15.9716532 L18.6288613,15.8308439 C18.615104,15.6843699 18.5956821,15.5306127 18.5734277,15.4181272 C18.5657399,15.3359884 18.5511734,15.2607283 18.5382254,15.1951792 C18.5111156,15.0406127 18.4779364,14.8929249 18.440711,14.758185 C18.4261445,14.6922312 18.4107688,14.6266821 18.3957977,14.5821734 C18.2958555,14.2038497 18.1558555,13.8117688 17.9608266,13.3820578 C17.9466647,13.3569711 17.9320983,13.329052 17.9074162,13.2675491 C17.8426763,13.1311908 17.7710578,12.995237 17.6982254,12.8625202 C17.664237,12.8010173 17.6298439,12.7399191 17.5833121,12.6650636 C17.5594393,12.6266243 17.5359711,12.5898035 17.5173584,12.5566243 L17.1018092,11.8323468 L16.7906532,12.6067977 C16.2767803,13.8854104 16.0162023,15.2396879 16.0162023,16.6324046 C16.0162023,18.3941387 16.4277052,20.0777803 17.2381676,21.6351792 C17.7225029,22.572289 18.3282254,23.4167399 19.0355087,24.1430405 C21.103948,26.3138497 23.894237,27.5091098 26.8929075,27.5091098 C32.8902486,27.5091098 37.7696127,22.6297457 37.7696127,16.6324046 C37.7696127,10.6350636 32.8902486,5.7552948 26.8929075,5.7552948" id="Fill-13" fill="#29ABE2" mask="url(#mask-2)"></path>
                <polygon id="Fill-14" fill="#FF9CBC" mask="url(#mask-2)" points="16.858104 2.99996532 14.8624971 8.09248555e-05 6.89746821 8.09248555e-05 4.89538728 2.99996532 10.876948 8.98759538"></polygon>
                <path d="M20.5319306,11.6298728 C20.048,10.6935723 19.4422775,9.84831214 18.734185,9.12079769 C17.6530289,7.98946821 16.3169595,7.08715607 14.8704277,6.51178035 L14.6227977,6.4126474 L12.4867861,8.54825434 L13.1507746,8.736 C14.7328555,9.18351445 16.1352832,10.1016069 17.2119884,11.3955954 C18.4270751,12.8631676 19.0963237,14.7228208 19.0963237,16.6322428 C19.0963237,16.8381965 19.1088671,17.0441503 19.1230289,17.2590058 L19.2383468,18.071896 C19.2642428,18.2135145 19.2958035,18.3603931 19.3277688,18.5016069 L19.3395029,18.5428786 C19.3504277,18.5756532 19.3581156,18.6080231 19.3653988,18.6383699 L19.3759191,18.6796416 C19.4928555,19.1073295 19.631237,19.4909133 19.793896,19.8405087 C19.8044162,19.8643815 19.8157457,19.8878497 19.8274798,19.9125318 C19.834763,19.9275029 19.8428555,19.942474 19.8493295,19.9590636 L19.9395607,20.1435723 C19.9840694,20.2338035 20.0297919,20.3244393 20.0880578,20.4255954 L20.1220462,20.4842659 C20.1386358,20.5138035 20.1552254,20.543341 20.1742428,20.5732832 L20.6905434,21.3958844 L20.9859191,20.6574451 C21.4949364,19.3828786 21.7534913,18.0286012 21.7534913,16.6322428 C21.7534913,14.8705087 21.3423931,13.1872717 20.5319306,11.6298728" id="Fill-15" fill="#FF9CBC" mask="url(#mask-2)"></path>
                <path d="M17.9563757,23.5327052 C17.8799017,23.4315491 17.804237,23.3360578 17.7423295,23.2599884 C17.6565491,23.139815 17.5772428,23.0164046 17.4967225,22.892185 L17.355104,22.6797572 C17.3316358,22.6473873 17.3069538,22.615422 17.2875318,22.5802197 L17.0305954,22.1076185 L16.6478208,22.4859422 C15.1045838,24.0117803 13.0551618,24.8517803 10.8766647,24.8517803 C6.34446821,24.8517803 2.65712717,21.1644393 2.65712717,16.6322428 C2.65712717,12.9877919 5.1026763,9.74068208 8.60469942,8.73559538 L9.26342775,8.54663584 L7.13834104,6.41345665 L6.89111561,6.5109711 C2.76920809,8.12825434 -4.04624277e-05,12.1955376 -4.04624277e-05,16.6322428 C-4.04624277e-05,22.6299884 4.8793237,27.508948 10.8766647,27.508948 C13.6625029,27.508948 16.3030809,26.4658266 18.3124451,24.5713757 L18.583948,24.3156532 L18.2740058,23.9280231 C18.1659711,23.7961156 18.0579364,23.6646127 17.9563757,23.5327052" id="Fill-16" fill="#FF9CBC" mask="url(#mask-2)"></path>
            </g>
        </g>
    </g>
</svg>